<?xml version="1.0" standalone="no"?>
<!DOCTYPE svg PUBLIC "-//W3C//DTD SVG 20010904//EN"
 "http://www.w3.org/TR/2001/REC-SVG-20010904/DTD/svg10.dtd">
<svg version="1.0" xmlns="http://www.w3.org/2000/svg"
 width="220.000000pt" height="140.000000pt" viewBox="0 0 220.000000 140.000000"
 preserveAspectRatio="xMidYMid meet">
<metadata>
Created by potrace 1.15, written by Peter Selinger 2001-2017
</metadata>
<g transform="translate(0.000000,140.000000) scale(0.100000,-0.100000)"
fill="#000000" stroke="none">
<path d="M1041 1314 c-15 -11 -21 -23 -18 -35 4 -16 -1 -19 -33 -19 -22 0 -47
-8 -61 -19 -20 -16 -21 -21 -10 -35 7 -9 22 -16 32 -16 27 0 24 -5 -25 -50
-24 -22 -58 -68 -76 -102 l-33 -61 -14 28 c-14 25 -16 26 -31 12 -14 -15 -14
-18 4 -38 l19 -22 -33 17 c-36 19 -47 16 -55 -14 -4 -17 1 -21 34 -26 34 -6
37 -8 23 -19 -24 -17 -9 -38 17 -25 17 10 19 7 19 -22 0 -95 50 -165 150 -212
60 -28 74 -30 175 -31 95 0 117 3 163 24 96 43 142 120 142 238 0 109 -56 214
-148 274 -26 18 -58 49 -72 71 -44 70 -128 111 -169 82z m185 -384 c11 -5 41
-3 66 2 55 13 78 6 78 -23 0 -23 -26 -59 -42 -59 -5 0 -25 11 -46 23 -37 24
-37 24 -57 4 -20 -20 -20 -20 3 -8 20 11 30 8 67 -14 41 -23 75 -59 75 -77 0
-5 -21 -8 -47 -9 -36 -1 -42 -3 -23 -8 24 -7 24 -7 -12 -29 -19 -12 -40 -22
-45 -22 -5 0 -23 15 -41 33 l-31 32 52 -2 52 -1 -50 7 c-74 10 -82 18 -51 50
l26 27 -26 -1 c-38 0 -70 44 -54 74 9 18 17 21 48 15 20 -4 46 -10 58 -14z
m-44 -185 c27 -30 55 -55 61 -55 6 0 18 7 28 16 19 17 49 13 49 -6 0 -19 -86
-50 -153 -57 -70 -6 -147 7 -215 37 l-45 20 24 26 c40 43 106 72 167 73 28 1
41 -8 84 -54z"/>
<path d="M227 644 c-65 -22 -106 -54 -107 -81 0 -7 4 -13 9 -13 5 0 11 -18 15
-41 6 -36 3 -45 -23 -74 -16 -18 -37 -47 -47 -65 -16 -26 -23 -31 -46 -26 -33
7 -35 0 -8 -22 20 -17 20 -17 0 -80 -11 -35 -20 -79 -20 -97 0 -28 4 -33 31
-39 51 -10 71 -7 85 12 19 25 17 30 -10 25 -18 -4 -25 0 -30 20 -6 27 2 87 13
87 8 0 55 -77 70 -116 10 -26 19 -33 48 -36 62 -7 117 5 122 27 3 17 1 18 -13
6 -14 -12 -16 -12 -10 3 3 9 12 16 20 16 8 0 14 5 14 11 0 5 -5 7 -11 3 -8 -4
-9 4 -4 27 4 19 9 36 12 39 6 7 73 -67 73 -81 0 -6 -6 -9 -14 -6 -9 4 -12 0
-9 -12 3 -14 21 -20 79 -27 41 -6 74 -6 74 -1 0 4 3 6 8 4 4 -3 8 15 8 40 2
70 24 80 24 10 l0 -57 33 0 c17 0 56 3 85 7 53 6 54 6 48 35 -7 33 2 78 14 78
12 0 33 -68 27 -85 -5 -10 2 -12 29 -8 18 3 61 0 94 -6 80 -16 210 3 203 29
-2 9 5 43 16 75 22 61 26 110 14 141 -5 13 -11 -3 -19 -48 -7 -37 -23 -80 -35
-97 l-23 -31 -13 32 c-15 35 -11 53 49 209 24 65 32 76 48 72 11 -3 20 -12 20
-19 0 -8 11 -19 25 -24 17 -6 25 -17 25 -32 l0 -23 -21 25 -21 25 17 -29 c30
-50 37 -88 19 -107 -13 -14 -13 -21 -2 -41 7 -12 18 -26 24 -30 6 -4 8 -28 4
-63 -3 -30 -4 -58 -1 -60 2 -3 20 -5 38 -5 25 0 32 3 26 12 -8 13 -5 66 4 82
12 18 23 -21 17 -58 -6 -35 -4 -38 12 -32 11 5 56 7 101 7 l82 -2 -6 66 c-3
36 -4 65 -1 65 3 0 18 -19 33 -41 22 -34 25 -46 17 -64 -10 -21 -8 -23 41 -29
75 -9 167 -7 167 3 0 4 -10 6 -22 4 -16 -3 -27 3 -37 19 -10 18 -10 20 0 10
19 -18 39 -15 39 6 0 9 9 34 19 54 11 19 17 38 14 42 -3 3 7 10 23 16 16 5 37
15 46 20 10 6 20 10 23 10 9 0 5 -89 -4 -94 -5 -3 -23 7 -40 23 -30 28 -31 28
-31 7 0 -12 -6 -28 -12 -35 -9 -9 -9 -12 -1 -7 14 8 56 -43 49 -60 -4 -11 7
-14 112 -31 23 -4 32 -1 32 8 0 11 2 11 8 2 6 -9 24 -11 60 -6 49 5 52 7 58
39 3 19 10 34 14 34 10 0 30 -57 23 -64 -4 -3 6 -6 21 -6 l28 0 -22 38 c-12
20 -28 41 -36 45 -11 6 -13 18 -8 45 11 64 18 66 47 15 24 -43 27 -45 27 -21
0 16 -12 41 -30 61 -17 19 -31 45 -31 58 -1 18 -2 20 -6 6 -7 -27 -28 -15 -31
19 -2 16 -15 41 -30 57 l-26 27 32 30 c29 26 32 35 30 72 -3 42 -4 43 -43 46
-32 2 -49 -3 -83 -28 -40 -29 -45 -30 -85 -19 -23 6 -65 8 -92 5 -43 -5 -52
-3 -63 14 -19 31 -82 45 -137 31 -40 -10 -51 -9 -72 4 -21 14 -27 14 -52 2
-24 -12 -32 -12 -52 -1 -44 24 -137 17 -206 -15 -33 -16 -66 -37 -72 -48 -10
-17 -10 -17 -11 3 0 23 -25 40 -36 23 -3 -5 -14 -7 -25 -4 -20 7 -58 -27 -59
-52 0 -20 -18 -15 -25 7 -3 11 -11 20 -16 20 -5 0 -9 6 -9 13 0 46 -91 69
-171 43 -38 -13 -54 -14 -64 -6 -19 16 -73 3 -112 -26 -38 -29 -46 -30 -38 -5
7 22 -18 51 -44 51 -23 0 -61 -45 -61 -73 0 -18 -5 -14 -26 21 -29 48 -50 54
-64 16 -15 -37 -36 -24 -32 20 2 31 -1 38 -23 46 -32 12 -25 13 -108 -16z
m107 -4 c9 0 12 -9 8 -25 -8 -46 8 -173 24 -179 12 -5 13 5 8 61 -6 54 -5 65
7 61 8 -3 18 6 25 21 10 26 11 25 52 -39 l42 -65 0 49 c0 37 6 56 21 72 19 20
23 21 36 8 11 -10 13 -28 8 -72 l-6 -57 20 36 c24 44 91 92 122 87 20 -3 21
-5 8 -18 -21 -23 -21 -40 -1 -40 11 0 7 -6 -14 -19 -58 -36 -84 -83 -68 -125
8 -22 64 -22 64 0 0 11 -6 14 -20 9 -21 -7 -24 3 -14 43 5 16 18 26 50 34 28
8 40 16 35 22 -5 6 -11 22 -13 36 -2 21 4 28 37 44 73 36 185 31 185 -8 0 -8
7 -19 16 -27 8 -7 23 -28 33 -48 l19 -35 6 29 c4 17 16 41 27 54 17 21 22 22
30 10 8 -12 11 -11 21 6 11 19 11 19 18 0 4 -12 -1 -40 -13 -70 -10 -27 -31
-84 -44 -125 -25 -74 -43 -108 -43 -80 0 9 -5 7 -14 -6 -11 -14 -18 -16 -26
-8 -8 8 -7 27 4 72 19 73 19 72 3 72 -8 0 -22 16 -33 35 l-18 34 -23 -21 c-30
-28 -29 -32 10 -57 17 -11 26 -21 18 -21 -11 0 -10 -4 4 -13 12 -9 14 -16 7
-21 -6 -4 -8 -14 -5 -23 7 -18 4 -17 -62 27 -68 46 -69 46 -62 20 3 -13 0 -28
-8 -36 -18 -18 -25 -18 -25 2 0 8 -4 12 -10 9 -6 -4 -10 14 -10 45 0 37 -4 50
-12 47 -9 -3 -13 -29 -13 -86 1 -52 -3 -80 -10 -78 -5 2 -12 14 -14 28 -3 22
-4 23 -12 4 -5 -13 -8 -15 -8 -5 -1 12 -11 14 -45 12 -34 -3 -49 1 -64 16 -18
18 -22 19 -33 6 -11 -14 -14 -13 -21 1 -5 8 -13 13 -18 10 -4 -3 -22 18 -40
45 -18 28 -34 50 -37 50 -3 0 -2 -27 2 -60 7 -61 -3 -79 -24 -42 -9 15 -10 14
-11 -8 0 -20 -2 -22 -10 -10 -5 8 -10 27 -10 42 0 15 -6 30 -12 34 -7 4 -10 4
-6 -1 4 -4 4 -13 -1 -19 -5 -6 -6 -29 -2 -52 7 -34 5 -43 -11 -53 -16 -10 -20
-8 -28 11 -7 18 -9 19 -9 6 -2 -34 -18 -18 -25 22 -7 42 -8 43 -43 34 -17 -5
-23 -14 -23 -34 0 -15 -7 -33 -15 -40 -8 -7 -15 -19 -15 -26 0 -20 -17 -17
-24 3 -6 15 -8 15 -17 3 -7 -10 -8 11 -3 70 13 144 12 241 -3 235 -9 -3 -7 4
4 19 18 24 127 67 151 60 8 -2 19 -4 26 -4z m1091 -34 c38 -25 43 -78 13 -124
-25 -37 -25 -37 -5 -52 44 -35 15 -104 -58 -140 -67 -33 -111 -40 -132 -24
-10 7 -13 14 -8 14 6 0 3 5 -5 10 -13 8 -13 11 1 22 13 11 14 25 5 103 -7 53
-14 85 -19 78 -5 -7 -15 -13 -24 -13 -13 0 -13 3 -3 15 9 11 9 15 1 15 -7 0
-9 5 -5 11 4 8 0 8 -15 0 -11 -7 -21 -10 -21 -8 0 5 31 67 33 67 1 0 34 11 72
25 76 28 129 28 170 1z m105 -1 c7 -8 9 -15 5 -15 -5 0 -6 -2 -3 -5 3 -3 24 2
48 10 23 8 57 15 75 15 36 0 85 -33 85 -57 0 -11 5 -13 18 -8 39 17 131 18
157 1 23 -15 26 -15 44 3 33 33 69 53 101 55 16 1 30 -1 30 -6 0 -4 -6 -8 -12
-8 -9 0 -8 -4 2 -10 10 -6 11 -10 3 -10 -7 0 -13 -5 -13 -11 0 -5 5 -7 11 -3
8 4 9 -1 4 -17 -4 -13 -12 -26 -17 -27 -14 -6 -38 -33 -38 -43 0 -6 11 -20 23
-32 13 -12 26 -29 29 -37 15 -44 -65 -109 -106 -87 -35 20 -36 31 -7 43 36 15
47 42 24 60 -25 19 -41 17 -48 -5 -8 -27 -80 -90 -121 -107 -38 -16 -68 -18
-60 -5 4 5 0 12 -6 15 -9 3 -8 8 5 16 10 6 16 19 13 28 -2 9 -7 39 -11 65 -4
27 -9 46 -12 43 -4 -3 -12 -1 -19 5 -10 8 -19 4 -38 -18 l-25 -28 37 -22 c43
-26 64 -56 35 -51 -10 2 -17 -2 -16 -9 3 -13 -22 -6 -76 21 -27 15 -29 14 -36
-7 -4 -12 -7 -25 -6 -29 1 -5 -4 -8 -9 -8 -5 0 -10 6 -10 13 0 9 -2 9 -9 -1
-11 -19 -21 8 -21 58 0 58 -11 100 -26 100 -10 0 -14 -17 -15 -62 -1 -35 -4
-74 -8 -88 -6 -22 -8 -23 -14 -7 -4 10 -11 15 -17 12 -6 -4 -10 37 -10 119 0
100 3 128 16 140 19 20 28 20 44 1z m587 -271 c3 -9 -1 -40 -10 -68 -9 -28
-21 -67 -27 -87 -21 -70 -106 -75 -93 -6 8 41 23 43 23 3 0 -19 5 -38 12 -42
7 -4 8 -3 4 4 -4 7 -1 12 6 12 10 0 10 2 -1 9 -10 6 -11 13 -2 29 8 14 8 29 1
48 -7 18 -7 30 0 39 9 11 6 12 -12 9 -16 -4 -12 1 13 15 19 11 41 27 48 35 17
20 30 20 38 0z"/>
<path d="M720 94 c-50 -10 -131 -14 -245 -13 -93 1 -239 1 -322 0 l-153 -1 0
-40 0 -40 1101 0 1100 0 -3 48 -3 47 -170 1 c-296 3 -1018 4 -1075 1 -30 -1
-77 1 -105 5 -31 4 -78 1 -125 -8z"/>
</g>
</svg>
